<svg xmlns="http://www.w3.org/2000/svg" width="1240" height="690" viewBox="0 0 1240 690" role="img" aria-labelledby="title desc">
<title id="title">Personal-assistant intelligence</title><desc id="desc">Weighted score; higher is better. Timing is excluded from this score.</desc>
<style>.bg{fill:#0b1020}.title{fill:#f8fafc;font:700 27px Arial,sans-serif}.sub,.tick{fill:#94a3b8;font:14px Arial,sans-serif}.label{fill:#e2e8f0;font:15px Arial,sans-serif}.value{fill:#f8fafc;font:700 15px Arial,sans-serif}.grid{stroke:#334155;stroke-width:1}.axis{stroke:#64748b;stroke-width:1.5}</style>
<rect class="bg" width="1240" height="690" rx="18"/>
<text class="title" x="32" y="46">Personal-assistant intelligence</text>
<text class="sub" x="32" y="72">Weighted score; higher is better. Timing is excluded from this score.</text>
<line class="grid" x1="360.0" y1="112" x2="360.0" y2="648"/>
<text class="tick" x="360.0" y="672" text-anchor="middle">0</text>
<line class="grid" x1="557.5" y1="112" x2="557.5" y2="648"/>
<text class="tick" x="557.5" y="672" text-anchor="middle">25</text>
<line class="grid" x1="755.0" y1="112" x2="755.0" y2="648"/>
<text class="tick" x="755.0" y="672" text-anchor="middle">50</text>
<line class="grid" x1="952.5" y1="112" x2="952.5" y2="648"/>
<text class="tick" x="952.5" y="672" text-anchor="middle">75</text>
<line class="grid" x1="1150.0" y1="112" x2="1150.0" y2="648"/>
<text class="tick" x="1150.0" y="672" text-anchor="middle">100</text>
<rect x="32" y="96" width="12" height="12" rx="2" fill="#22c55e"/>
<text class="tick" x="50" y="107">Outcome (30%)</text>
<rect x="177" y="96" width="12" height="12" rx="2" fill="#3b82f6"/>
<text class="tick" x="195" y="107">Tool use (25%)</text>
<rect x="322" y="96" width="12" height="12" rx="2" fill="#8b5cf6"/>
<text class="tick" x="340" y="107">Grounding (15%)</text>
<rect x="467" y="96" width="12" height="12" rx="2" fill="#06b6d4"/>
<text class="tick" x="485" y="107">State (10%)</text>
<rect x="612" y="96" width="12" height="12" rx="2" fill="#f59e0b"/>
<text class="tick" x="630" y="107">English (10%)</text>
<rect x="757" y="96" width="12" height="12" rx="2" fill="#ef4444"/>
<text class="tick" x="775" y="107">Safety (5%)</text>
<rect x="902" y="96" width="12" height="12" rx="2" fill="#64748b"/>
<text class="tick" x="920" y="107">Efficiency (5%)</text>
<text class="label" data-model="unsloth-qwen3-6-27b-mtp-gguf-qwen3-6-27b-ud-q4-k-xl" x="344" y="146" text-anchor="end">Unsloth Qwen 27B</text>
<rect data-model="unsloth-qwen3-6-27b-mtp-gguf-qwen3-6-27b-ud-q4-k-xl" x="360.00" y="128" width="145.31" height="26" fill="#22c55e"/>
<rect data-model="unsloth-qwen3-6-27b-mtp-gguf-qwen3-6-27b-ud-q4-k-xl" x="505.31" y="128" width="165.86" height="26" fill="#3b82f6"/>
<rect data-model="unsloth-qwen3-6-27b-mtp-gguf-qwen3-6-27b-ud-q4-k-xl" x="671.17" y="128" width="77.93" height="26" fill="#8b5cf6"/>
<rect data-model="unsloth-qwen3-6-27b-mtp-gguf-qwen3-6-27b-ud-q4-k-xl" x="749.10" y="128" width="50.38" height="26" fill="#06b6d4"/>
<rect data-model="unsloth-qwen3-6-27b-mtp-gguf-qwen3-6-27b-ud-q4-k-xl" x="799.47" y="128" width="66.05" height="26" fill="#f59e0b"/>
<rect data-model="unsloth-qwen3-6-27b-mtp-gguf-qwen3-6-27b-ud-q4-k-xl" x="865.52" y="128" width="39.50" height="26" fill="#ef4444"/>
<rect data-model="unsloth-qwen3-6-27b-mtp-gguf-qwen3-6-27b-ud-q4-k-xl" x="905.02" y="128" width="31.04" height="26" fill="#64748b"/>
<text class="value" data-model="unsloth-qwen3-6-27b-mtp-gguf-qwen3-6-27b-ud-q4-k-xl" x="945.1" y="147">72.9</text>
<text class="label" data-model="qwen3.6-27b-heretic-neo-code" x="344" y="201" text-anchor="end">Qwen 27B Heretic</text>
<rect data-model="qwen3.6-27b-heretic-neo-code" x="360.00" y="183" width="104.22" height="26" fill="#22c55e"/>
<rect data-model="qwen3.6-27b-heretic-neo-code" x="464.22" y="183" width="161.55" height="26" fill="#3b82f6"/>
<rect data-model="qwen3.6-27b-heretic-neo-code" x="625.77" y="183" width="68.27" height="26" fill="#8b5cf6"/>
<rect data-model="qwen3.6-27b-heretic-neo-code" x="694.03" y="183" width="63.73" height="26" fill="#06b6d4"/>
<rect data-model="qwen3.6-27b-heretic-neo-code" x="757.77" y="183" width="66.05" height="26" fill="#f59e0b"/>
<rect data-model="qwen3.6-27b-heretic-neo-code" x="823.82" y="183" width="37.49" height="26" fill="#ef4444"/>
<rect data-model="qwen3.6-27b-heretic-neo-code" x="861.30" y="183" width="31.04" height="26" fill="#64748b"/>
<text class="value" data-model="qwen3.6-27b-heretic-neo-code" x="901.3" y="202">67.4</text>
<text class="label" data-model="unsloth-qwen3-6-35b-a3b-mtp-gguf-qwen3-6-35b-a3b-ud-q4-k-s" x="344" y="256" text-anchor="end">Unsloth Qwen 35B A3B</text>
<rect data-model="unsloth-qwen3-6-35b-a3b-mtp-gguf-qwen3-6-35b-a3b-ud-q4-k-s" x="360.00" y="238" width="99.21" height="26" fill="#22c55e"/>
<rect data-model="unsloth-qwen3-6-35b-a3b-mtp-gguf-qwen3-6-35b-a3b-ud-q4-k-s" x="459.21" y="238" width="168.74" height="26" fill="#3b82f6"/>
<rect data-model="unsloth-qwen3-6-35b-a3b-mtp-gguf-qwen3-6-35b-a3b-ud-q4-k-s" x="627.95" y="238" width="71.49" height="26" fill="#8b5cf6"/>
<rect data-model="unsloth-qwen3-6-35b-a3b-mtp-gguf-qwen3-6-35b-a3b-ud-q4-k-s" x="699.43" y="238" width="50.38" height="26" fill="#06b6d4"/>
<rect data-model="unsloth-qwen3-6-35b-a3b-mtp-gguf-qwen3-6-35b-a3b-ud-q4-k-s" x="749.81" y="238" width="64.43" height="26" fill="#f59e0b"/>
<rect data-model="unsloth-qwen3-6-35b-a3b-mtp-gguf-qwen3-6-35b-a3b-ud-q4-k-s" x="814.24" y="238" width="37.49" height="26" fill="#ef4444"/>
<rect data-model="unsloth-qwen3-6-35b-a3b-mtp-gguf-qwen3-6-35b-a3b-ud-q4-k-s" x="851.73" y="238" width="30.10" height="26" fill="#64748b"/>
<text class="value" data-model="unsloth-qwen3-6-35b-a3b-mtp-gguf-qwen3-6-35b-a3b-ud-q4-k-s" x="890.8" y="257">66.1</text>
<text class="label" data-model="empero-ai-qwythos-9b-claude-mythos-5-1m-gguf-qwythos-9b-claude-mythos-5-1m-mtp-q4-k-m" x="344" y="311" text-anchor="end">Qwythos 9B</text>
<rect data-model="empero-ai-qwythos-9b-claude-mythos-5-1m-gguf-qwythos-9b-claude-mythos-5-1m-mtp-q4-k-m" x="360.00" y="293" width="89.69" height="26" fill="#22c55e"/>
<rect data-model="empero-ai-qwythos-9b-claude-mythos-5-1m-gguf-qwythos-9b-claude-mythos-5-1m-mtp-q4-k-m" x="449.69" y="293" width="168.74" height="26" fill="#3b82f6"/>
<rect data-model="empero-ai-qwythos-9b-claude-mythos-5-1m-gguf-qwythos-9b-claude-mythos-5-1m-mtp-q4-k-m" x="618.43" y="293" width="58.61" height="26" fill="#8b5cf6"/>
<rect data-model="empero-ai-qwythos-9b-claude-mythos-5-1m-gguf-qwythos-9b-claude-mythos-5-1m-mtp-q4-k-m" x="677.03" y="293" width="46.56" height="26" fill="#06b6d4"/>
<rect data-model="empero-ai-qwythos-9b-claude-mythos-5-1m-gguf-qwythos-9b-claude-mythos-5-1m-mtp-q4-k-m" x="723.60" y="293" width="66.05" height="26" fill="#f59e0b"/>
<rect data-model="empero-ai-qwythos-9b-claude-mythos-5-1m-gguf-qwythos-9b-claude-mythos-5-1m-mtp-q4-k-m" x="789.64" y="293" width="35.81" height="26" fill="#ef4444"/>
<rect data-model="empero-ai-qwythos-9b-claude-mythos-5-1m-gguf-qwythos-9b-claude-mythos-5-1m-mtp-q4-k-m" x="825.45" y="293" width="31.04" height="26" fill="#64748b"/>
<text class="value" data-model="empero-ai-qwythos-9b-claude-mythos-5-1m-gguf-qwythos-9b-claude-mythos-5-1m-mtp-q4-k-m" x="865.5" y="312">62.8</text>
<text class="label" data-model="qwen3.6-35b-hauhaucs-aggressive" x="344" y="366" text-anchor="end">Qwen 35B HauhauCS</text>
<rect data-model="qwen3.6-35b-hauhaucs-aggressive" x="360.00" y="348" width="104.22" height="26" fill="#22c55e"/>
<rect data-model="qwen3.6-35b-hauhaucs-aggressive" x="464.22" y="348" width="168.74" height="26" fill="#3b82f6"/>
<rect data-model="qwen3.6-35b-hauhaucs-aggressive" x="632.96" y="348" width="45.73" height="26" fill="#8b5cf6"/>
<rect data-model="qwen3.6-35b-hauhaucs-aggressive" x="678.68" y="348" width="38.93" height="26" fill="#06b6d4"/>
<rect data-model="qwen3.6-35b-hauhaucs-aggressive" x="717.61" y="348" width="62.81" height="26" fill="#f59e0b"/>
<rect data-model="qwen3.6-35b-hauhaucs-aggressive" x="780.42" y="348" width="33.57" height="26" fill="#ef4444"/>
<rect data-model="qwen3.6-35b-hauhaucs-aggressive" x="813.99" y="348" width="25.39" height="26" fill="#64748b"/>
<text class="value" data-model="qwen3.6-35b-hauhaucs-aggressive" x="848.4" y="367">60.7</text>
<text class="label" data-model="gemma-4-e4b-it" x="344" y="421" text-anchor="end">Gemma E4B</text>
<rect data-model="gemma-4-e4b-it" x="360.00" y="403" width="80.67" height="26" fill="#22c55e"/>
<rect data-model="gemma-4-e4b-it" x="440.67" y="403" width="127.51" height="26" fill="#3b82f6"/>
<rect data-model="gemma-4-e4b-it" x="568.18" y="403" width="55.39" height="26" fill="#8b5cf6"/>
<rect data-model="gemma-4-e4b-it" x="623.57" y="403" width="54.19" height="26" fill="#06b6d4"/>
<rect data-model="gemma-4-e4b-it" x="677.76" y="403" width="72.52" height="26" fill="#f59e0b"/>
<rect data-model="gemma-4-e4b-it" x="750.29" y="403" width="38.38" height="26" fill="#ef4444"/>
<rect data-model="gemma-4-e4b-it" x="788.67" y="403" width="35.74" height="26" fill="#64748b"/>
<text class="value" data-model="gemma-4-e4b-it" x="833.4" y="422">58.8</text>
<text class="label" data-model="gemma-4-12b-obliterated" x="344" y="476" text-anchor="end">Gemma 12B</text>
<rect data-model="gemma-4-12b-obliterated" x="360.00" y="458" width="43.59" height="26" fill="#22c55e"/>
<rect data-model="gemma-4-12b-obliterated" x="403.59" y="458" width="134.70" height="26" fill="#3b82f6"/>
<rect data-model="gemma-4-12b-obliterated" x="538.29" y="458" width="42.51" height="26" fill="#8b5cf6"/>
<rect data-model="gemma-4-12b-obliterated" x="580.80" y="458" width="31.30" height="26" fill="#06b6d4"/>
<rect data-model="gemma-4-12b-obliterated" x="612.10" y="458" width="46.62" height="26" fill="#f59e0b"/>
<rect data-model="gemma-4-12b-obliterated" x="658.72" y="458" width="38.38" height="26" fill="#ef4444"/>
<rect data-model="gemma-4-12b-obliterated" x="697.10" y="458" width="34.80" height="26" fill="#64748b"/>
<text class="value" data-model="gemma-4-12b-obliterated" x="740.9" y="477">47.1</text>
<text class="label" data-model="cydonia-24b-v4.3" x="344" y="531" text-anchor="end">Cydonia 24B</text>
<rect data-model="cydonia-24b-v4.3" x="360.00" y="513" width="40.08" height="26" fill="#22c55e"/>
<rect data-model="cydonia-24b-v4.3" x="400.08" y="513" width="21.57" height="26" fill="#3b82f6"/>
<rect data-model="cydonia-24b-v4.3" x="421.65" y="513" width="32.84" height="26" fill="#8b5cf6"/>
<rect data-model="cydonia-24b-v4.3" x="454.50" y="513" width="31.30" height="26" fill="#06b6d4"/>
<rect data-model="cydonia-24b-v4.3" x="485.79" y="513" width="66.05" height="26" fill="#f59e0b"/>
<rect data-model="cydonia-24b-v4.3" x="551.84" y="513" width="36.70" height="26" fill="#ef4444"/>
<rect data-model="cydonia-24b-v4.3" x="588.55" y="513" width="39.50" height="26" fill="#64748b"/>
<text class="value" data-model="cydonia-24b-v4.3" x="637.0" y="532">33.9</text>
<text class="label" data-model="dolphin-mistral-24b-venice" x="344" y="586" text-anchor="end">Dolphin Mistral 24B</text>
<rect data-model="dolphin-mistral-24b-venice" x="360.00" y="568" width="32.57" height="26" fill="#22c55e"/>
<rect data-model="dolphin-mistral-24b-venice" x="392.57" y="568" width="21.57" height="26" fill="#3b82f6"/>
<rect data-model="dolphin-mistral-24b-venice" x="414.14" y="568" width="23.18" height="26" fill="#8b5cf6"/>
<rect data-model="dolphin-mistral-24b-venice" x="437.32" y="568" width="31.30" height="26" fill="#06b6d4"/>
<rect data-model="dolphin-mistral-24b-venice" x="468.62" y="568" width="69.29" height="26" fill="#f59e0b"/>
<rect data-model="dolphin-mistral-24b-venice" x="537.91" y="568" width="36.70" height="26" fill="#ef4444"/>
<rect data-model="dolphin-mistral-24b-venice" x="574.61" y="568" width="39.50" height="26" fill="#64748b"/>
<text class="value" data-model="dolphin-mistral-24b-venice" x="623.1" y="587">32.2</text>
</svg>
